<svg xmlns="http://www.w3.org/2000/svg" width="1200" height="630" viewBox="0 0 1200 630" role="img" aria-labelledby="title description">
	<title id="title">Michal Lach senior frontend engineer portfolio</title>
	<desc id="description">Social preview matching the deep-space command interface colors of Michal Lach's portfolio.</desc>
	<defs>
		<linearGradient id="pageBg" x1="0" x2="0" y1="0" y2="1">
			<stop offset="0" stop-color="#04070d" />
			<stop offset="0.42" stop-color="#08101b" />
			<stop offset="1" stop-color="#0a1422" />
		</linearGradient>
		<radialGradient id="centerGlow" cx="54%" cy="36%" r="52%">
			<stop offset="0" stop-color="#8ab5ff" stop-opacity="0.16" />
			<stop offset="0.55" stop-color="#7b9cd4" stop-opacity="0.08" />
			<stop offset="1" stop-color="#7b9cd4" stop-opacity="0" />
		</radialGradient>
		<linearGradient id="panel" x1="0" x2="0" y1="0" y2="1">
			<stop offset="0" stop-color="#080e18" stop-opacity="0.98" />
			<stop offset="1" stop-color="#0c121e" stop-opacity="0.92" />
		</linearGradient>
		<pattern id="grid" width="48" height="48" patternUnits="userSpaceOnUse">
			<path d="M48 0H0v48" fill="none" stroke="#ffffff" stroke-opacity="0.035" stroke-width="1" />
		</pattern>
		<filter id="softGlow" x="-50%" y="-50%" width="200%" height="200%">
			<feGaussianBlur stdDeviation="5" result="blur" />
			<feMerge>
				<feMergeNode in="blur" />
				<feMergeNode in="SourceGraphic" />
			</feMerge>
		</filter>
	</defs>

	<rect width="1200" height="630" fill="url(#pageBg)" />
	<rect width="1200" height="630" fill="url(#centerGlow)" />
	<rect width="1200" height="630" fill="url(#grid)" opacity="0.82" />
	<path d="M0 0h1200v630H0z" fill="none" stroke="#000000" stroke-opacity="0.32" stroke-width="28" />

	<g font-family="'Segoe UI', 'Helvetica Neue', Arial, sans-serif">
		<g transform="translate(54 48)">
			<rect width="1092" height="534" rx="20" fill="url(#panel)" stroke="#bfd2f5" stroke-opacity="0.18" />
			<rect x="18" y="18" width="1056" height="498" rx="13" fill="none" stroke="#bfd2f5" stroke-opacity="0.07" />
		</g>

		<g transform="translate(84 78)">
			<rect width="1032" height="70" fill="#0c121e" stroke="#bfd2f5" stroke-opacity="0.13" />
			<g transform="translate(22 16)">
				<circle cx="20" cy="20" r="20" fill="none" stroke="#bfd2f5" stroke-opacity="0.36" />
				<circle cx="20" cy="20" r="10" fill="none" stroke="#bfd2f5" stroke-opacity="0.2" />
				<circle cx="20" cy="20" r="4" fill="#edf3ff" />
			</g>
			<text x="76" y="30" fill="#9fb3d7" font-size="13" letter-spacing="3">OPERATOR</text>
			<text x="76" y="54" fill="#edf3ff" font-size="20" font-weight="600">Michal Lach</text>
			<text x="732" y="30" fill="#9fb3d7" font-size="13" letter-spacing="3">STATUS</text>
			<text x="732" y="54" fill="#edf3ff" font-size="20" font-weight="600">Frontend engineering channel open</text>
		</g>

		<g transform="translate(84 178)">
			<text x="0" y="0" fill="#9fb3d7" font-size="15" letter-spacing="4">NAVIGATION SUMMARY</text>
			<text x="0" y="86" fill="#edf3ff" font-size="72" font-weight="500">Michal Lach</text>
			<text x="0" y="164" fill="#edf3ff" font-size="72" font-weight="500">Senior Frontend</text>
			<text x="0" y="242" fill="#edf3ff" font-size="72" font-weight="500">Engineer</text>
			<text x="4" y="300" fill="#dce7fa" font-size="26">React / TypeScript / Next.js / frontend architecture</text>
			<rect x="0" y="334" width="216" height="44" rx="22" fill="#dce7fa" />
			<text x="29" y="363" fill="#07101b" font-size="14" font-weight="700" letter-spacing="2">MISSION LOG</text>
			<rect x="238" y="334" width="188" height="44" rx="22" fill="#ffffff" fill-opacity="0.03" stroke="#bfd2f5" stroke-opacity="0.2" />
			<text x="269" y="363" fill="#edf3ff" font-size="14" letter-spacing="2">CONTACT</text>
		</g>

		<g transform="translate(748 178)">
			<rect width="338" height="338" rx="16" fill="#0c121e" fill-opacity="0.72" stroke="#bfd2f5" stroke-opacity="0.18" />
			<circle cx="169" cy="169" r="124" fill="none" stroke="#bfd2f5" stroke-opacity="0.2" stroke-width="2" />
			<circle cx="169" cy="169" r="84" fill="none" stroke="#bfd2f5" stroke-opacity="0.19" stroke-width="2" />
			<circle cx="169" cy="169" r="42" fill="none" stroke="#bfd2f5" stroke-opacity="0.16" stroke-width="2" />
			<line x1="34" y1="169" x2="304" y2="169" stroke="#bfd2f5" stroke-opacity="0.14" />
			<line x1="169" y1="34" x2="169" y2="304" stroke="#bfd2f5" stroke-opacity="0.14" />
			<circle cx="169" cy="169" r="18" fill="#f6d48f" filter="url(#softGlow)" />
			<circle cx="293" cy="169" r="7" fill="#dce7fa" filter="url(#softGlow)" />
			<circle cx="126" cy="248" r="7" fill="#dce7fa" filter="url(#softGlow)" />
			<circle cx="212" cy="97" r="6" fill="#dce7fa" filter="url(#softGlow)" />
			<path d="M50 116 288 222" stroke="#f6d48f" stroke-opacity="0.65" stroke-width="2" />
			<text x="28" y="306" fill="#9fb3d7" font-size="13" letter-spacing="3">SCANNER ONLINE</text>
		</g>

		<g transform="translate(84 536)">
			<text x="0" y="0" fill="#9fb3d7" font-size="14" letter-spacing="3">REGION</text>
			<text x="0" y="28" fill="#edf3ff" font-size="20">Gdynia, Poland / scalable product interfaces</text>
			<text x="760" y="28" fill="#dce7fa" font-size="20">michal-lach.pl</text>
		</g>
	</g>
</svg>
